<svg width="302" height="302" viewBox="0 0 302 302" fill="none" xmlns="http://www.w3.org/2000/svg">
<path d="M207.021 94.979C205.617 93.5637 203.947 92.4404 202.107 91.6737C200.267 90.9071 198.293 90.5124 196.3 90.5124C194.307 90.5124 192.333 90.9071 190.493 91.6737C188.653 92.4404 186.983 93.5637 185.579 94.979L151 129.709L116.421 94.979C113.578 92.1356 109.721 90.5382 105.7 90.5382C101.679 90.5382 97.8224 92.1356 94.979 94.979C92.1356 97.8224 90.5382 101.679 90.5382 105.7C90.5382 109.721 92.1356 113.578 94.979 116.421L129.709 151L94.979 185.579C93.5637 186.983 92.4404 188.653 91.6737 190.493C90.9071 192.333 90.5124 194.307 90.5124 196.3C90.5124 198.293 90.9071 200.267 91.6737 202.107C92.4404 203.947 93.5637 205.617 94.979 207.021C96.3827 208.436 98.0528 209.56 99.8929 210.326C101.733 211.093 103.707 211.488 105.7 211.488C107.693 211.488 109.667 211.093 111.507 210.326C113.347 209.56 115.017 208.436 116.421 207.021L151 172.291L185.579 207.021C186.983 208.436 188.653 209.56 190.493 210.326C192.333 211.093 194.307 211.488 196.3 211.488C198.293 211.488 200.267 211.093 202.107 210.326C203.947 209.56 205.617 208.436 207.021 207.021C208.436 205.617 209.56 203.947 210.326 202.107C211.093 200.267 211.488 198.293 211.488 196.3C211.488 194.307 211.093 192.333 210.326 190.493C209.56 188.653 208.436 186.983 207.021 185.579L172.291 151L207.021 116.421C208.436 115.017 209.56 113.347 210.326 111.507C211.093 109.667 211.488 107.693 211.488 105.7C211.488 103.707 211.093 101.733 210.326 99.8929C209.56 98.0528 208.436 96.3827 207.021 94.979ZM256.7 0H45.3C33.2857 0 21.7635 4.77267 13.2681 13.2681C4.77267 21.7635 0 33.2857 0 45.3V256.7C0 268.714 4.77267 280.237 13.2681 288.732C21.7635 297.227 33.2857 302 45.3 302H256.7C268.714 302 280.237 297.227 288.732 288.732C297.227 280.237 302 268.714 302 256.7V45.3C302 33.2857 297.227 21.7635 288.732 13.2681C280.237 4.77267 268.714 0 256.7 0ZM271.8 256.7C271.8 260.705 270.209 264.546 267.377 267.377C264.546 270.209 260.705 271.8 256.7 271.8H45.3C41.2952 271.8 37.4545 270.209 34.6227 267.377C31.7909 264.546 30.2 260.705 30.2 256.7V45.3C30.2 41.2952 31.7909 37.4545 34.6227 34.6227C37.4545 31.7909 41.2952 30.2 45.3 30.2H256.7C260.705 30.2 264.546 31.7909 267.377 34.6227C270.209 37.4545 271.8 41.2952 271.8 45.3V256.7Z" fill="#5EFF12"/>
</svg>
