<svg width="300" height="300" viewBox="0 0 300 300" fill="none" xmlns="http://www.w3.org/2000/svg">
<path d="M150 0C67.15 0 0 67.15 0 150C0 232.85 67.15 300 150 300C232.85 300 300 232.85 300 150C300 67.15 232.85 0 150 0ZM150 275C81.075 275 25 218.925 25 150C25 81.075 81.075 25 150 25C218.925 25 275 81.075 275 150C275 218.925 218.925 275 150 275ZM75 150C75 159.849 76.9399 169.602 80.709 178.701C84.4781 187.801 90.0026 196.069 96.967 203.033C103.931 209.997 112.199 215.522 121.299 219.291C130.398 223.06 140.151 225 150 225C169.891 225 188.968 217.098 203.033 203.033C217.098 188.968 225 169.891 225 150C225 130.109 217.098 111.032 203.033 96.967C188.968 82.9018 169.891 75 150 75C130.109 75 111.032 82.9018 96.967 96.967C82.9018 111.032 75 130.109 75 150Z" fill="#5EFF12"/>
</svg>
